TITLE ""
FILE "1Q_t_0669-0677.mp3" MP3
  TRACK 01 AUDIO
    TITLE "1Q_t_0669-0677_01"
    INDEX 01 00:00:00
  TRACK 02 AUDIO
    TITLE "1Q_t_0669-0677_02"
    INDEX 01 00:01:22
  TRACK 03 AUDIO
    TITLE "1Q_t_0669-0677_03"
    INDEX 01 00:01:27
  TRACK 04 AUDIO
    TITLE "1Q_t_0669-0677_04"
    INDEX 01 00:03:36
  TRACK 05 AUDIO
    TITLE "1Q_t_0669-0677_05"
    INDEX 01 00:03:44
  TRACK 06 AUDIO
    TITLE "1Q_t_0669-0677_06"
    INDEX 01 00:08:02
  TRACK 07 AUDIO
    TITLE "1Q_t_0669-0677_07"
    INDEX 01 00:08:47
  TRACK 08 AUDIO
    TITLE "1Q_t_0669-0677_08"
    INDEX 01 00:09:58
  TRACK 09 AUDIO
    TITLE "1Q_t_0669-0677_09"
    INDEX 01 00:09:68
  TRACK 10 AUDIO
    TITLE "1Q_t_0669-0677_10"
    INDEX 01 00:11:71
  TRACK 11 AUDIO
    TITLE "1Q_t_0669-0677_11"
    INDEX 01 00:12:04
  TRACK 12 AUDIO
    TITLE "1Q_t_0669-0677_12"
    INDEX 01 00:15:61
  TRACK 13 AUDIO
    TITLE "1Q_t_0669-0677_13"
    INDEX 01 00:16:31
  TRACK 14 AUDIO
    TITLE "1Q_t_0669-0677_14"
    INDEX 01 00:17:42
  TRACK 15 AUDIO
    TITLE "1Q_t_0669-0677_15"
    INDEX 01 00:17:50
  TRACK 16 AUDIO
    TITLE "1Q_t_0669-0677_16"
    INDEX 01 00:19:66
  TRACK 17 AUDIO
    TITLE "1Q_t_0669-0677_17"
    INDEX 01 00:19:72
  TRACK 18 AUDIO
    TITLE "1Q_t_0669-0677_18"
    INDEX 01 00:24:32
  TRACK 19 AUDIO
    TITLE "1Q_t_0669-0677_19"
    INDEX 01 00:25:02
  TRACK 20 AUDIO
    TITLE "1Q_t_0669-0677_20"
    INDEX 01 00:26:23
  TRACK 21 AUDIO
    TITLE "1Q_t_0669-0677_21"
    INDEX 01 00:26:31
  TRACK 22 AUDIO
    TITLE "1Q_t_0669-0677_22"
    INDEX 01 00:28:42
  TRACK 23 AUDIO
    TITLE "1Q_t_0669-0677_23"
    INDEX 01 00:28:50
  TRACK 24 AUDIO
    TITLE "1Q_t_0669-0677_24"
    INDEX 01 00:34:37
  TRACK 25 AUDIO
    TITLE "1Q_t_0669-0677_25"
    INDEX 01 00:35:09
  TRACK 26 AUDIO
    TITLE "1Q_t_0669-0677_26"
    INDEX 01 00:36:30
  TRACK 27 AUDIO
    TITLE "1Q_t_0669-0677_27"
    INDEX 01 00:36:37
  TRACK 28 AUDIO
    TITLE "1Q_t_0669-0677_28"
    INDEX 01 00:38:23
  TRACK 29 AUDIO
    TITLE "1Q_t_0669-0677_29"
    INDEX 01 00:38:32
  TRACK 30 AUDIO
    TITLE "1Q_t_0669-0677_30"
    INDEX 01 00:43:45
  TRACK 31 AUDIO
    TITLE "1Q_t_0669-0677_31"
    INDEX 01 00:44:17
  TRACK 32 AUDIO
    TITLE "1Q_t_0669-0677_32"
    INDEX 01 00:45:21
  TRACK 33 AUDIO
    TITLE "1Q_t_0669-0677_33"
    INDEX 01 00:45:31
  TRACK 34 AUDIO
    TITLE "1Q_t_0669-0677_34"
    INDEX 01 00:47:37
  TRACK 35 AUDIO
    TITLE "1Q_t_0669-0677_35"
    INDEX 01 00:47:43
  TRACK 36 AUDIO
    TITLE "1Q_t_0669-0677_36"
    INDEX 01 00:51:41
  TRACK 37 AUDIO
    TITLE "1Q_t_0669-0677_37"
    INDEX 01 00:52:11
  TRACK 38 AUDIO
    TITLE "1Q_t_0669-0677_38"
    INDEX 01 00:53:36
  TRACK 39 AUDIO
    TITLE "1Q_t_0669-0677_39"
    INDEX 01 00:54:04
  TRACK 40 AUDIO
    TITLE "1Q_t_0669-0677_40"
    INDEX 01 00:55:33
  TRACK 41 AUDIO
    TITLE "1Q_t_0669-0677_41"
    INDEX 01 00:55:41
  TRACK 42 AUDIO
    TITLE "1Q_t_0669-0677_42"
    INDEX 01 00:57:69
  TRACK 43 AUDIO
    TITLE "1Q_t_0669-0677_43"
    INDEX 01 00:58:02
  TRACK 44 AUDIO
    TITLE "1Q_t_0669-0677_44"
    INDEX 01 01:02:43
  TRACK 45 AUDIO
    TITLE "1Q_t_0669-0677_45"
    INDEX 01 01:03:13
  TRACK 46 AUDIO
    TITLE "1Q_t_0669-0677_46"
    INDEX 01 01:04:36
  TRACK 47 AUDIO
    TITLE "1Q_t_0669-0677_47"
    INDEX 01 01:04:46
  TRACK 48 AUDIO
    TITLE "1Q_t_0669-0677_48"
    INDEX 01 01:07:07
  TRACK 49 AUDIO
    TITLE "1Q_t_0669-0677_49"
    INDEX 01 01:07:11
  TRACK 50 AUDIO
    TITLE "1Q_t_0669-0677_50"
    INDEX 01 01:13:05
  TRACK 51 AUDIO
    TITLE "1Q_t_0669-0677_51"
    INDEX 01 01:13:52
  TRACK 52 AUDIO
    TITLE "1Q_t_0669-0677_52"
    INDEX 01 01:15:08
  TRACK 53 AUDIO
    TITLE "1Q_t_0669-0677_53"
    INDEX 01 01:15:16
  TRACK 54 AUDIO
    TITLE "1Q_t_0669-0677_54"
    INDEX 01 01:16:37
  TRACK 55 AUDIO
    TITLE "1Q_t_0669-0677_55"
    INDEX 01 01:16:43
  TRACK 56 AUDIO
    TITLE "1Q_t_0669-0677_56"
    INDEX 01 01:23:10
